<?xml version="1.0" standalone="no"?>
<!DOCTYPE svg PUBLIC "-//W3C//DTD SVG 20010904//EN"
 "http://www.w3.org/TR/2001/REC-SVG-20010904/DTD/svg10.dtd">
<svg version="1.0" xmlns="http://www.w3.org/2000/svg"
 width="1125.000000pt" height="680.000000pt" viewBox="0 0 1125.000000 680.000000"
 preserveAspectRatio="xMidYMid meet">
<metadata>
Created by potrace 1.16, written by Peter Selinger 2001-2019
</metadata>
<g transform="translate(0.000000,680.000000) scale(0.100000,-0.100000)"
fill="#000000" stroke="none">
<path d="M1002 6209 c-156 -19 -284 -82 -403 -199 -125 -125 -189 -278 -189
-458 0 -176 51 -303 170 -422 109 -109 214 -156 370 -166 208 -14 408 93 492
264 30 60 33 76 33 152 0 68 -5 93 -22 126 -42 78 -106 114 -206 114 l-47 0
38 -49 c101 -127 77 -321 -55 -441 -202 -185 -547 -102 -684 165 -49 95 -64
154 -63 255 0 107 15 173 66 279 74 156 240 293 404 335 219 57 507 33 583
-47 11 -12 28 -40 38 -62 17 -37 18 -93 21 -780 l3 -740 -74 -37 c-177 -91
-319 -258 -384 -453 -36 -105 -46 -189 -40 -319 20 -427 318 -802 747 -938
515 -164 1146 -53 1552 270 257 206 404 446 439 721 49 380 -185 753 -595 947
-96 45 -246 97 -315 109 -22 4 -41 10 -41 13 0 4 44 17 98 30 326 76 592 297
657 548 20 76 19 206 -1 275 -73 244 -292 408 -656 492 -91 20 -117 21 -978
23 -487 1 -918 -2 -958 -7z m1699 -42 c204 -47 351 -160 434 -332 78 -162 90
-320 37 -477 -41 -122 -84 -189 -182 -289 -184 -184 -314 -218 -837 -219
l-203 0 0 671 0 671 343 -5 c258 -3 358 -8 408 -20z m-168 -1347 c159 -13 259
-38 372 -94 387 -192 566 -676 428 -1156 -69 -242 -247 -488 -444 -617 -202
-131 -480 -203 -735 -190 -329 17 -603 133 -796 335 -120 126 -207 278 -249
437 -29 107 -32 319 -6 415 40 149 155 327 272 421 141 112 377 156 556 103
221 -66 349 -221 366 -443 13 -175 -53 -323 -192 -429 l-30 -23 91 4 c118 6
199 42 272 122 185 202 155 496 -72 701 -90 82 -246 156 -364 172 l-47 7 -3
123 -3 122 229 0 c126 0 286 -5 355 -10z"/>
<path d="M5026 5701 c-4 -5 -168 -426 -366 -936 -197 -509 -388 -986 -423
-1059 -78 -162 -140 -260 -214 -338 -76 -79 -130 -109 -209 -116 -45 -3 -64
-9 -64 -18 0 -12 70 -14 405 -14 335 0 405 2 405 14 0 9 -20 15 -66 19 -89 7
-138 40 -179 122 -28 57 -30 67 -29 175 0 145 22 227 136 524 l83 216 376 0
376 0 165 -402 c152 -368 192 -481 183 -512 -2 -6 -6 -23 -9 -38 -10 -44 -82
-80 -172 -86 -54 -3 -74 -8 -74 -18 0 -12 81 -14 485 -14 424 0 485 2 485 15
0 12 -14 15 -62 15 -51 0 -73 6 -114 30 -97 55 -132 117 -289 500 -65 157
-252 611 -417 1010 -165 399 -318 769 -340 823 -37 88 -57 113 -72 88z m35
-933 l186 -443 -178 -3 c-98 -1 -261 -1 -363 0 l-184 3 171 443 c95 243 174
442 177 442 4 0 89 -199 191 -442z"/>
<path d="M5955 5668 c-3 -18 -23 -154 -45 -303 -22 -148 -42 -285 -45 -303 -5
-28 -3 -33 10 -30 10 2 29 35 49 89 87 233 241 395 445 469 83 31 221 54 287
48 l39 -3 0 -1090 c0 -868 -3 -1100 -13 -1141 -26 -101 -101 -154 -219 -154
-40 0 -53 -4 -53 -15 0 -13 58 -15 465 -15 387 0 465 2 465 14 0 10 -20 15
-74 18 -78 5 -136 30 -166 71 -47 65 -45 22 -48 1206 l-3 1114 93 -6 c196 -13
341 -73 467 -192 107 -102 191 -237 232 -372 11 -39 39 -60 39 -30 1 18 -93
651 -97 656 -2 3 -10 -4 -17 -15 -14 -18 -38 -19 -868 -22 -469 -1 -868 0
-885 3 -20 3 -33 12 -33 20 0 29 -19 15 -25 -17z"/>
<path d="M8020 5651 c0 -5 26 -12 58 -16 126 -14 191 -62 212 -157 14 -70 14
-2009 -1 -2079 -20 -94 -101 -149 -218 -149 -39 0 -51 -4 -51 -15 0 -13 58
-15 466 -15 368 0 465 3 462 13 -3 7 -32 14 -74 18 -83 7 -112 18 -150 57 -57
57 -58 62 -61 615 l-4 507 618 -2 618 -3 0 -490 c0 -435 -2 -496 -18 -546 -28
-94 -97 -139 -214 -139 -40 0 -53 -4 -53 -15 0 -13 58 -15 465 -15 387 0 465
2 465 14 0 10 -20 15 -73 18 -143 9 -192 64 -209 231 -5 51 -8 509 -6 1032 3
876 5 943 22 987 33 86 83 118 209 133 145 18 25 25 -408 25 -271 0 -465 -4
-465 -9 0 -5 24 -12 53 -15 136 -17 185 -50 214 -145 16 -50 18 -112 18 -546
l0 -490 -618 -3 -618 -2 4 507 c3 558 3 559 64 620 35 34 72 47 166 58 31 3
57 11 57 16 0 5 -186 9 -465 9 -279 0 -465 -4 -465 -9z"/>
<path d="M3217 2320 c-119 -20 -281 -84 -388 -153 -263 -169 -451 -420 -526
-704 -35 -134 -37 -325 -5 -457 88 -356 353 -599 772 -709 103 -27 131 -30
270 -31 131 0 168 3 240 22 492 132 853 560 877 1039 25 492 -306 871 -857
983 -103 21 -287 26 -383 10z m292 -40 c208 -58 361 -192 479 -418 62 -120 92
-204 128 -357 26 -112 28 -135 28 -335 0 -202 -2 -221 -27 -315 -59 -220 -170
-378 -322 -457 -102 -53 -254 -98 -355 -105 -242 -16 -473 100 -619 312 -151
218 -234 510 -235 820 0 468 165 732 524 838 117 35 113 35 225 36 73 1 120
-5 174 -19z"/>
<path d="M410 2301 c0 -9 47 -21 83 -21 11 0 40 -9 63 -21 32 -15 49 -32 66
-67 l23 -47 0 -850 c0 -811 -1 -852 -19 -888 -26 -53 -67 -78 -147 -91 -38 -6
-69 -14 -69 -19 0 -4 242 -7 538 -5 518 4 540 5 617 26 108 30 167 56 247 109
253 167 335 488 183 717 -84 126 -245 219 -423 242 -29 4 -50 10 -45 14 4 4
42 19 84 34 41 15 98 42 125 60 56 38 147 133 170 178 63 123 56 288 -17 394
-92 135 -247 212 -469 234 -120 12 -1010 13 -1010 1z m945 -45 c71 -23 142
-72 191 -133 173 -212 92 -584 -154 -705 l-66 -33 -188 -3 -188 -4 0 452 0
452 178 -5 c121 -4 193 -10 227 -21z m77 -929 c153 -51 274 -190 309 -354 16
-80 6 -242 -20 -317 -54 -152 -157 -257 -302 -307 -53 -18 -88 -22 -199 -23
-116 -1 -140 2 -174 19 -48 24 -74 58 -86 111 -5 21 -10 232 -10 468 l0 428
218 -5 c159 -3 230 -9 264 -20z"/>
<path d="M4506 2301 c-3 -4 28 -13 68 -18 89 -13 118 -31 148 -91 l23 -47 6
-680 c5 -620 7 -685 23 -735 26 -79 68 -158 115 -218 166 -210 544 -309 900
-236 306 63 507 241 565 499 17 79 32 328 22 369 -3 14 -11 26 -16 26 -6 0
-10 -57 -10 -145 0 -227 -36 -358 -132 -482 -84 -109 -252 -207 -407 -239
-113 -22 -287 -15 -386 16 -200 63 -310 170 -362 351 -17 59 -18 117 -18 774
0 690 1 711 20 749 28 56 60 75 143 88 40 6 72 14 72 19 0 12 -767 12 -774 0z"/>
<path d="M6010 2301 c0 -5 26 -12 58 -16 76 -9 149 -47 224 -114 34 -31 410
-473 836 -983 425 -511 778 -928 782 -928 5 0 11 377 13 838 4 926 0 879 69
1020 51 104 150 172 250 172 17 0 27 4 23 10 -4 6 -133 10 -356 10 -226 0
-349 -4 -349 -10 0 -5 10 -10 23 -10 96 0 196 -71 247 -174 65 -132 63 -112
67 -779 3 -396 1 -607 -6 -603 -5 4 -303 359 -662 791 l-653 785 -283 0 c-158
0 -283 -4 -283 -9z"/>
<path d="M8445 2301 c-3 -5 21 -13 52 -16 90 -11 138 -36 165 -87 l23 -43 3
-824 c2 -578 -1 -841 -8 -878 -20 -92 -94 -143 -210 -143 -17 0 -30 -4 -30
-10 0 -14 1005 -13 1141 0 270 28 485 116 652 270 410 375 410 1081 0 1461
-167 154 -382 244 -644 268 -141 13 -1135 15 -1144 2z m1021 -21 c256 -17 394
-85 528 -260 134 -173 203 -387 213 -660 14 -372 -84 -661 -294 -867 -134
-132 -249 -170 -543 -180 -198 -7 -272 4 -320 43 -61 52 -60 35 -60 1031 l0
903 168 0 c92 0 231 -5 308 -10z"/>
</g>
</svg>
