<svg width="580" height="580" viewBox="0 0 580 580" fill="none" xmlns="http://www.w3.org/2000/svg">
<path d="M80.3867 286.72L1.46 562.987V562.981C0.324582 566.945 1.11624 571.216 3.59545 574.513C6.07985 577.804 9.95999 579.747 14.0851 579.752H566.592C570.717 579.747 574.602 577.804 577.087 574.513C579.566 571.216 580.357 566.945 579.222 562.981L526.602 377.555C526.612 377.404 526.612 377.248 526.602 377.096L500.295 286.722C498.681 281.081 493.53 277.191 487.665 277.185H430.504C433.988 270.149 437.082 263.107 440.368 256.139L440.373 256.134C452.514 227.306 459.613 196.603 461.352 165.368C461.352 73.2802 386.238 0.928177 290.339 0.928177C194.443 0.928177 119.325 73.2775 119.325 165.368C121.07 196.603 128.169 227.306 140.309 256.134C143.335 263.108 146.888 270.144 150.174 277.18L93.018 277.185C87.1535 277.191 82.0024 281.081 80.3877 286.722L80.3867 286.72ZM252.387 435.04C238.444 461.389 231.152 490.737 231.136 520.545C231.183 531.577 232.199 542.581 234.162 553.436H191.673V546.858C191.652 513.837 179.214 482.035 156.829 457.765C134.443 433.494 103.75 418.525 70.8447 415.833L76.2405 396.958C120.891 409.916 169.074 398.255 202.855 366.307C220.746 392.943 238.439 416.823 252.386 435.042L252.387 435.04ZM377.36 367.619H377.355C420.104 356.879 465.396 364.639 502.131 388.999L513.511 428.988H507.397H507.391C473.615 428.946 441.115 441.899 416.626 465.165C392.137 488.431 377.533 520.223 375.845 553.963H260.933C253.995 521.708 257.375 488.088 270.605 457.864C276.131 464.442 279.683 468.979 280.407 469.833H280.401C282.901 472.802 286.584 474.52 290.469 474.52C294.349 474.52 298.032 472.801 300.532 469.833C302.834 466.942 339.338 423.395 377.026 367.489L377.36 367.619ZM31.5067 553.432L63.476 441.615C90.7987 442.484 116.716 453.953 135.731 473.599C154.747 493.239 165.371 519.516 165.361 546.853V553.431L31.5067 553.432ZM402.48 553.432C404.152 526.729 415.928 501.672 435.412 483.344C454.901 465.016 480.636 454.797 507.385 454.765C512.031 454.786 516.672 455.14 521.265 455.817L549.156 553.432L402.48 553.432ZM477.725 303.485L491.933 353.147C467.903 342.079 441.761 336.355 415.303 336.376C408.725 336.376 402.74 336.834 396.491 337.428C403.465 326.314 410.236 314.933 416.616 303.491L477.725 303.485ZM290.325 27.232C371.492 27.232 435.032 87.8773 435.032 165.365H435.037C433.308 192.969 426.975 220.095 416.292 245.611C383.141 321.449 315.787 408.731 290.328 440.571C264.875 408.732 197.521 321.451 164.369 245.611C153.687 220.095 147.348 192.971 145.624 165.365C145.624 87.8813 209.16 27.232 290.331 27.232H290.325ZM164.039 303.485C171.669 317.1 179.825 330.652 188.179 343.803V343.808C174.929 357.563 158.163 367.428 139.705 372.335C121.247 377.241 101.793 376.996 83.4653 371.631L103.2 303.491L164.039 303.485Z" fill="black"/>
<path d="M290.333 262.053C314.547 261.881 337.697 252.111 354.713 234.887C371.729 217.668 381.219 194.403 381.104 170.189C380.989 145.981 371.276 122.804 354.093 105.747C336.911 88.6893 313.672 79.1426 289.457 79.2C265.249 79.2573 242.051 88.9188 224.952 106.055C207.853 123.195 198.249 146.419 198.249 170.628C198.421 194.935 208.202 218.191 225.452 235.316C242.703 252.447 266.025 262.056 290.332 262.056L290.333 262.053ZM290.333 105.507C307.568 105.684 324.027 112.679 336.109 124.965C348.187 137.252 354.912 153.829 354.792 171.059C354.677 188.293 347.735 204.772 335.489 216.897C323.245 229.022 306.692 235.799 289.459 235.741C272.229 235.684 255.724 228.799 243.557 216.591C231.391 204.388 224.563 187.856 224.563 170.627C224.735 153.293 231.74 136.736 244.057 124.539C256.375 112.346 273.005 105.508 290.333 105.508V105.507Z" fill="black"/>
</svg>
