<?xml version="1.0" encoding="UTF-8"?>
<svg width="752pt" height="752pt" version="1.1" viewBox="0 0 752 752" xmlns="http://www.w3.org/2000/svg">
 <path d="m408.8 234.51c-48.129-48.133-126.16-48.133-174.29 0-48.133 48.129-48.133 126.16 0 174.29 41.461 41.461 105.14 47.219 152.76 17.219 7.6328-4.8125 14.867-10.547 21.535-17.219 6.6719-6.668 12.406-13.902 17.219-21.535 30-47.613 24.242-111.3-17.219-152.76zm-195.22-20.93c59.688-59.691 156.46-59.691 216.15 0 48.5 48.5 57.582 121.46 27.289 179.13l26.941 26.941c5.5391 5.5391 5.7695 14.375 0.69141 20.188l82.93 67.855c19.488 15.945 20.949 45.23 3.1445 63.035-17.805 17.805-47.09 16.344-63.035-3.1445l-67.855-82.93c-5.8125 5.0781-14.648 4.8477-20.188-0.69141l-26.941-26.941c-57.672 30.293-130.63 21.211-179.13-27.289-59.691-59.688-59.691-156.46 0-216.15zm204.35 226.8 12.184 12.184 22.453-22.453-12.184-12.184c-3.3125 4.0742-6.8633 8.0117-10.652 11.801-3.7891 3.7891-7.7266 7.3398-11.801 10.652zm42.965 23.262 69.703 85.195c4.8555 5.9336 13.777 6.3828 19.199 0.95703 5.4258-5.4219 4.9766-14.344-0.95703-19.199l-85.195-69.703z" fill-rule="evenodd"/>
</svg>
